<?xml version="1.0" encoding="utf-8"?>
<svg xmlns="http://www.w3.org/2000/svg" viewBox="0 0 500 500">
  <g id="Camada_1">
    <g transform="matrix(1, 0, 0, 1, -289.110391, -412.597943)">
      <path class="cls-2" d="M 658.127 716.443 L 658.127 550.166 C 658.127 526.334 638.812 507.02 614.979 507.02 L 381.396 507.02 C 357.563 507.02 338.248 526.334 338.248 550.166 L 338.248 784.974 C 338.248 808.807 357.563 828.122 381.396 828.122 L 733.037 828.122 C 742.645 828.122 747.457 816.506 740.667 809.71 L 665.707 734.751 C 660.855 729.897 658.127 723.31 658.127 716.443 Z" style="fill: rgb(8, 132, 254); stroke-width: 0px;"/>
      <path class="cls-3" d="M 539.768 773.387 L 455.802 641.524 C 454.753 639.875 452.2 640.623 452.2 642.574 L 452.2 771.289 C 452.2 773.442 450.453 775.191 448.298 775.191 L 415.808 775.191 C 413.655 775.191 411.906 773.442 411.906 771.289 L 411.906 571.677 C 411.906 569.524 413.655 567.775 415.808 567.775 L 455.649 567.775 C 457.005 567.775 458.257 568.474 458.97 569.628 L 536.678 695.323 C 537.712 696.994 540.293 696.26 540.293 694.295 L 540.293 571.685 C 540.293 569.53 542.041 567.782 544.195 567.782 L 576.993 567.782 C 579.147 567.782 580.895 569.53 580.895 571.685 L 580.895 771.296 C 580.895 773.449 579.147 775.198 576.993 775.198 L 543.055 775.198 C 541.72 775.198 540.475 774.52 539.761 773.387 L 539.768 773.387 Z" style="fill: rgb(242, 240, 252); stroke-width: 0px;"/>
    </g>
  </g>
</svg>